<?xml version="1.0" encoding="utf-8"?>
<!-- Generator: Adobe Illustrator 15.0.0, SVG Export Plug-In . SVG Version: 6.00 Build 0)  -->
<!DOCTYPE svg PUBLIC "-//W3C//DTD SVG 1.1//EN" "http://www.w3.org/Graphics/SVG/1.1/DTD/svg11.dtd">
<svg version="1.1" id="Layer_1" xmlns="http://www.w3.org/2000/svg" xmlns:xlink="http://www.w3.org/1999/xlink" x="0px" y="0px"
	 width="46.55px" height="34.166px" viewBox="0 0 46.55 34.166" enable-background="new 0 0 46.55 34.166" xml:space="preserve">
<polygon fill="#151515" points="46.55,34.166 23.275,28.666 0,34.166 0,0 46.55,0 "/>
<g>
	<path fill="#303030" d="M16.121,16.246c0,2.844-0.854,3.754-3.375,3.754c-0.785,0-2.465-0.168-2.465-0.168v-9.96h1.316v3.25
		c0,0,1.009-0.421,1.877-0.421C15.379,12.701,16.121,13.668,16.121,16.246z M14.763,16.246c0-1.682-0.393-2.326-1.443-2.326
		c-0.785,0-1.723,0.295-1.723,0.295v4.51c0,0,0.827,0.07,1.149,0.07C14.455,18.795,14.763,18.039,14.763,16.246z"/>
	<path fill="#303030" d="M22.995,18.655l0.028,1.05c0,0-1.597,0.295-2.788,0.295c-2.101-0.014-2.857-1.177-2.857-3.6
		c0-2.605,1.121-3.699,2.983-3.699c1.933,0,2.9,0.995,2.9,3.236l-0.084,0.967h-4.455c0,1.261,0.448,1.877,1.695,1.877
		C21.496,18.781,22.995,18.655,22.995,18.655z M21.944,15.867c0-1.457-0.462-1.988-1.583-1.988c-1.092,0-1.639,0.574-1.653,1.988
		H21.944z"/>
	<path fill="#303030" d="M26.423,14.047V17.1c0,1.262,0.069,1.653,0.867,1.653c0.393,0,1.191-0.069,1.191-0.069l0.07,1.148
		c0,0-0.939,0.168-1.43,0.168c-1.526,0-2.017-0.574-2.017-2.592v-3.361h-0.938v-1.191h0.938v-2.101h1.317v2.101h2.059v1.191H26.423z
		"/>
	<path fill="#303030" d="M35.048,18.333c0.028,0.406,0.266,0.574,0.701,0.63l-0.057,1.023c-0.799,0-1.303-0.113-1.779-0.52
		c0,0-1.176,0.533-2.367,0.533c-1.33,0-2.031-0.771-2.031-2.199s0.771-1.975,2.242-2.088l1.961-0.182v-0.518
		c0-0.785-0.365-1.135-1.107-1.135c-0.967,0-2.633,0.168-2.633,0.168l-0.057-1.009c0,0,1.695-0.337,2.83-0.337
		c1.526,0,2.297,0.729,2.297,2.313V18.333z M31.911,16.666c-0.729,0.07-1.05,0.406-1.05,1.106s0.293,1.12,0.938,1.12
		c0.813,0,1.92-0.35,1.92-0.35v-2.059L31.911,16.666z"/>
</g>
</svg>
