<?xml version="1.0" encoding="utf-8"?>
<!-- Generator: Adobe Illustrator 15.0.0, SVG Export Plug-In . SVG Version: 6.00 Build 0)  -->
<!DOCTYPE svg PUBLIC "-//W3C//DTD SVG 1.1//EN" "http://www.w3.org/Graphics/SVG/1.1/DTD/svg11.dtd">
<svg version="1.1" id="Layer_1" xmlns="http://www.w3.org/2000/svg" xmlns:xlink="http://www.w3.org/1999/xlink" x="0px" y="0px"
	 width="194.569px" height="18.546px" viewBox="0 0 194.569 18.546" enable-background="new 0 0 194.569 18.546"
	 xml:space="preserve">
<g>
	<path fill="#00A99D" d="M0.925,5.749l3.174,11.697h0.275L8.073,5.999h0.975l3.674,11.447h0.275l3.199-11.697h0.925l-3.425,12.497
		h-1.699L8.548,7.049L5.073,18.246H3.374L0,5.749H0.925z"/>
	<path fill="#00A99D" d="M28.847,17.446l0.05,0.8c0,0-2.799,0.225-4.624,0.225c-3.724-0.024-4.698-2.398-4.698-6.473
		c0-4.949,2.199-6.474,5.049-6.474c3.074,0,4.749,1.675,4.749,5.999v0.824h-8.873c0,3.449,0.899,5.324,3.799,5.324
		C26.048,17.672,28.847,17.446,28.847,17.446z M28.447,11.548c0-3.824-1.225-5.224-3.824-5.224c-2.5,0-4.124,1.424-4.124,5.224
		H28.447z"/>
	<path fill="#00A99D" d="M42.696,11.723c0,4.674-1.05,6.748-5.698,6.748c-1.7,0-3.725-0.225-3.725-0.225V0h0.875v6.523
		c0,0,2.074-0.999,4.299-0.999C41.847,5.524,42.696,7.424,42.696,11.723z M41.771,11.772c0-3.749-0.55-5.448-3.324-5.448
		c-2.225,0-4.299,1-4.299,1v10.197c0,0,1.949,0.15,2.824,0.15C41.146,17.672,41.771,15.746,41.771,11.772z"/>
	<path fill="#752F92" d="M61.097,15.547c0.05,0.725,0.475,1.024,1.249,1.125l-0.1,1.824c-1.425,0-2.324-0.2-3.175-0.925
		c0,0-2.099,0.95-4.224,0.95c-2.374,0-3.624-1.375-3.624-3.924c0-2.55,1.375-3.525,3.999-3.725l3.499-0.325V9.623
		c0-1.399-0.649-2.024-1.975-2.024c-1.725,0-4.698,0.3-4.698,0.3L51.948,6.1c0,0,3.024-0.601,5.049-0.601c2.725,0,4.1,1.3,4.1,4.124
		V15.547z M55.498,12.572c-1.3,0.125-1.875,0.725-1.875,1.975s0.525,2,1.675,2c1.449,0,3.424-0.625,3.424-0.625v-3.674
		L55.498,12.572z"/>
	<path fill="#752F92" d="M75.146,5.773v12.473h-2.374v-0.725c0,0-1.95,1-3.499,1c-3.55,0-4.274-1.75-4.274-6.249V5.773h2.374v6.475
		c0,3.049,0.226,4.123,2.325,4.123c1.399,0,3.074-0.75,3.074-0.75V5.773H75.146z"/>
	<path fill="#752F92" d="M88.771,18.246h-2.35v-0.725c0,0-1.85,0.975-3.524,0.975c-2.899,0-4.624-1.449-4.624-6.498
		c0-4.449,1.525-6.499,5.199-6.499c1.024,0,2.699,0.274,2.949,0.3V0.75h2.35V18.246z M86.421,15.597V7.873
		c-0.275-0.024-1.75-0.25-2.799-0.25c-2.175,0-2.95,1.4-2.95,4.399c0,3.499,1.05,4.274,2.55,4.3
		C84.671,16.297,86.421,15.597,86.421,15.597z"/>
	<path fill="#752F92" d="M92.697,0.726h2.375V3.35h-2.375V0.726z M92.697,5.773h2.375v12.473h-2.375V5.773z"/>
	<path fill="#752F92" d="M109.046,11.897c0,4.199-1.2,6.624-5.449,6.624c-4.273,0-5.499-2.324-5.499-6.624
		c0-4.174,1.399-6.398,5.499-6.398C107.546,5.499,109.046,7.773,109.046,11.897z M106.646,11.897c0-2.974-0.824-4.274-3.049-4.274
		c-2.399,0-3.1,1.2-3.1,4.274c0,3.1,0.525,4.474,3.1,4.474S106.646,14.872,106.646,11.897z"/>
	<path fill="#FFFFFF" d="M117.723,18.246V0.75h3.349v9.773l1.275-0.25l2.475-4.5h3.748l-3.224,5.899l3.399,6.573h-3.774l-2.55-4.699
		l-1.35,0.25v4.449H117.723z"/>
	<path fill="#FFFFFF" d="M130.673,0.726h3.349v3.424h-3.349V0.726z M130.673,5.773h3.349v12.473h-3.349V5.773z"/>
	<path fill="#FFFFFF" d="M140.896,8.799v4.724c0,1.249,0,1.824,1.051,1.824c0.699,0,1.898-0.05,1.898-0.05l0.15,2.874
		c0,0-1.674,0.375-2.549,0.375c-3.025,0-3.899-1.149-3.899-4.749V8.799h-1.475V5.773h1.475V2.275h3.349v3.498h3.074v3.025H140.896z"
		/>
	<path fill="#FFFFFF" d="M154.595,5.999l-0.1,2.874c0,0-1.975-0.199-2.925-0.199c-2.399,0-2.849,0.824-2.849,3.199
		c0,2.674,0.475,3.474,2.874,3.474c0.95,0,2.899-0.2,2.899-0.2l0.1,2.875c0,0-2.674,0.524-4.074,0.524
		c-3.724,0-5.198-1.975-5.198-6.673c0-4.424,1.55-6.398,5.273-6.398C152.046,5.475,154.595,5.999,154.595,5.999z"/>
	<path fill="#FFFFFF" d="M157.022,18.246V0.75h3.349v5.374c0,0,1.925-0.649,3.099-0.649c3.5,0,4.399,2.199,4.399,6.223v6.549h-3.349
		v-6.549c0-1.874-0.25-3.099-1.75-3.099c-0.824,0-2.399,0.3-2.399,0.3v9.348H157.022z"/>
	<path fill="#FFFFFF" d="M180.769,15.247l0.051,2.599c0,0-2.875,0.7-5.199,0.7c-3.773,0-5.373-1.874-5.373-6.374
		c0-4.448,1.875-6.697,5.523-6.697c3.674,0,5.449,1.85,5.449,5.623l-0.25,2.35h-7.349c0.024,1.425,0.725,2.024,2.524,2.024
		C178.194,15.472,180.769,15.247,180.769,15.247z M177.92,10.873c0-1.775-0.575-2.425-2.149-2.425c-1.6,0-2.149,0.774-2.174,2.425
		H177.92z"/>
	<path fill="#FFFFFF" d="M183.722,18.246V5.773h3.35v0.701c0,0,1.674-1,3.099-1c3.499,0,4.399,2.199,4.399,6.248v6.523h-3.35v-6.648
		c0-1.899-0.25-3.124-1.875-3.124c-1.174,0-2.273,0.45-2.273,0.45v9.322H183.722z"/>
</g>
</svg>
